<svg id="Capa_1" enable-background="new 0 0 512 512" height="512" viewBox="0 0 512 512" width="512" xmlns="http://www.w3.org/2000/svg"><g><path d="m71.223 193.261-5.223 170.739 90.362 147.004c6.185.656 12.398.996 18.611.996 25.15 0 50.299-5.372 73.559-16.112l2.468-178.888-103.887-199.616z" fill="#f1b7e7"/><path d="m156.362 511.004c6.185.656 12.398.996 18.611.996 25.15 0 50.299-5.372 73.559-16.112l2.468-178.888-19.168-36.832-134.616 134.616z" fill="#e789da"/><path d="m248.532 495.888c18.2-8.403 35.243-20.092 50.224-35.07l85.793-85.778-145.549-61.04-35.875 12.428z" fill="#ef5ca2"/><path d="m51.19 213.291c-68.253 68.244-68.253 179.284 0 247.527 29.397 29.392 66.734 46.113 105.172 50.187l-85.139-317.744z" fill="#e789da"/><path d="m51.19 460.818c29.397 29.392 66.734 46.113 105.172 50.187l-32.833-122.533-72.343 72.343c.002 0 .003.001.004.003z" fill="#ef5ca2"/><path d="m460.809 51.265c-33.064-33.059-77.024-51.265-123.783-51.265s-90.72 18.206-123.783 51.265l-66.13 66.119 56.013 209.044 181.424 48.612 76.26-76.248c68.253-68.244 68.253-179.284-.001-247.527z" fill="#ef5ca2"/><path d="m203.126 326.428 181.424 48.612 76.26-76.248c68.254-68.244 68.254-179.284 0-247.527-.012-.012-.025-.024-.038-.037l-261.356 261.356z" fill="#ea1c81"/><path d="m337 289.946c-29.449 0-58.898-11.209-81.317-33.629-44.839-44.838-44.839-117.796 0-162.634 44.838-44.839 117.797-44.839 162.635 0 44.838 44.838 44.838 117.796 0 162.634-22.42 22.42-51.869 33.629-81.318 33.629z" fill="#ffd5b2"/><path d="m337 289.946c29.449 0 58.898-11.209 81.317-33.629 44.838-44.838 44.838-117.796 0-162.634l-162.634 162.634c22.419 22.42 51.868 33.629 81.317 33.629z" fill="#fac394"/><path d="m280.431 266.569c-9.349 0-18.138-3.641-24.748-10.251-6.611-6.61-10.251-15.4-10.251-24.749s3.641-18.138 10.251-24.749 15.399-10.251 24.748-10.251c9.35 0 18.139 3.641 24.749 10.251s10.251 15.4 10.251 24.749-3.641 18.138-10.251 24.749c-6.611 6.61-15.4 10.251-24.749 10.251z" fill="#9ddff6"/><circle cx="368.82" cy="192.678" fill="#453d81" r="15"/><circle cx="319.322" cy="143.18" fill="#6b61b1" r="15"/><path d="m280.431 266.569c9.35 0 18.139-3.641 24.749-10.251s10.251-15.4 10.251-24.749-3.641-18.138-10.251-24.749l-49.497 49.497c6.61 6.611 15.399 10.252 24.748 10.252z" fill="#6ba7ff"/></g></svg>