<svg width="439" height="476" viewBox="0 0 439 476" fill="none" xmlns="http://www.w3.org/2000/svg">
<path d="M219.27 255.816C229.169 255.816 237.738 252.207 244.966 244.968C252.196 237.739 255.82 229.169 255.82 219.274V36.547C255.82 26.647 252.2 18.083 244.966 10.854C237.739 3.617 229.169 0 219.27 0C209.37 0 200.806 3.621 193.573 10.854C186.34 18.083 182.723 26.651 182.723 36.547V219.275C182.723 229.17 186.34 237.739 193.573 244.969C200.806 252.207 209.373 255.816 219.27 255.816Z" fill="#FF009B"/>
<path d="M415.561 157.887C400.236 127.245 378.683 101.548 350.895 80.803C342.901 74.713 333.86 72.333 323.772 73.664C313.683 74.997 305.689 79.755 299.789 87.937C293.698 95.93 291.371 104.923 292.795 114.916C294.218 124.914 298.934 132.953 306.928 139.044C325.573 153.128 340 170.356 350.178 190.722C360.362 211.086 365.448 232.787 365.448 255.813C365.448 275.614 361.594 294.501 353.887 312.491C346.181 330.478 335.757 346.035 322.622 359.17C309.487 372.301 293.934 382.721 275.944 390.431C257.957 398.141 239.066 402.001 219.271 402.001C199.479 402.001 180.587 398.141 162.6 390.431C144.611 382.721 129.053 372.301 115.918 359.17C102.789 346.035 92.367 330.479 84.657 312.491C76.949 294.501 73.094 275.614 73.094 255.813C73.094 232.787 78.186 211.089 88.368 190.722C98.551 170.358 112.969 153.131 131.621 139.044C139.615 132.949 144.324 124.911 145.754 114.916C147.181 104.927 144.851 95.93 138.759 87.937C132.858 79.755 124.915 74.996 114.92 73.664C104.926 72.332 95.835 74.713 87.652 80.803C59.86 101.548 38.308 127.245 22.983 157.887C7.659 188.533 0 221.175 0 255.814C0 285.511 5.806 313.868 17.415 340.896C29.028 367.924 44.633 391.236 64.241 410.844C83.843 430.447 107.16 446.059 134.19 457.659C161.218 469.274 189.578 475.085 219.27 475.085C248.963 475.085 277.322 469.274 304.351 457.659C331.382 446.055 354.698 430.446 374.303 410.844C393.905 391.242 409.51 367.924 421.121 340.896C432.732 313.868 438.533 285.504 438.533 255.814C438.534 221.174 430.885 188.532 415.561 157.887Z" fill="#FF009B"/>
</svg>
